<?xml version="1.0" standalone="no"?><!DOCTYPE svg PUBLIC "-//W3C//DTD SVG 1.1//EN" "http://www.w3.org/Graphics/SVG/1.1/DTD/svg11.dtd"><svg t="1734236961091" class="icon" viewBox="0 0 1024 1024" version="1.1" xmlns="http://www.w3.org/2000/svg" p-id="21596" xmlns:xlink="http://www.w3.org/1999/xlink" width="200" height="200"><path d="M303.0784 899.072l11.3152 5.6064A444.2112 444.2112 0 0 0 512 950.7328c241.8432 0 438.6048-191.0272 438.6048-425.7792 0-234.752-196.7616-425.7792-438.6048-425.7792S73.3952 290.176 73.3952 524.9536c0 90.4704 29.312 177.2032 84.7872 250.8032l11.8528 15.6928-52.4288 146.6112 185.472-38.9632zM512 1023.744c-75.9808 0-149.376-16.1536-218.368-48.0768l-182.272 38.3488a60.9792 60.9792 0 0 1-58.4448-19.5584 60.7488 60.7488 0 0 1-11.4432-60.4672l46.6432-130.4576c-57.5488-82.7904-87.808-178.688-87.808-278.5536C0.2816 249.9072 229.8368 26.1632 512 26.1632c282.1376 0 511.7184 223.744 511.7184 498.7904 0 275.0208-229.5808 498.7648-511.7184 498.7648z m-194.944-498.7648c0 26.88-21.8112 48.64-48.7168 48.64a48.6912 48.6912 0 0 1-48.7424-48.64c0-26.88 21.8112-48.6656 48.7424-48.6656 26.88 0 48.7168 21.76 48.7168 48.64z m243.6864 0c0 26.88-21.8368 48.64-48.7424 48.64a48.6912 48.6912 0 0 1-48.7424-48.64c0-26.88 21.8368-48.6656 48.7424-48.6656s48.7424 21.76 48.7424 48.64z m243.6608 0c0 26.88-21.8112 48.64-48.7168 48.64a48.6912 48.6912 0 0 1-48.7424-48.64c0-26.88 21.8112-48.6656 48.7168-48.6656 26.9312 0 48.7424 21.76 48.7424 48.64z" fill="#767479" p-id="21597"></path></svg>