<?xml version="1.0" standalone="no"?><!DOCTYPE svg PUBLIC "-//W3C//DTD SVG 1.1//EN" "http://www.w3.org/Graphics/SVG/1.1/DTD/svg11.dtd"><svg t="1734236713830" class="icon" viewBox="0 0 1024 1024" version="1.1" xmlns="http://www.w3.org/2000/svg" p-id="19277" xmlns:xlink="http://www.w3.org/1999/xlink" width="200" height="200"><path d="M232.727273 580.421818a209.454545 209.454545 0 1 0 209.454545 209.454546 209.454545 209.454545 0 0 0-209.454545-209.454546z m0 349.090909a139.636364 139.636364 0 1 1 139.636363-139.636363 139.636364 139.636364 0 0 1-139.636363 139.636363zM788.014545 580.421818a209.454545 209.454545 0 1 0 209.454546 209.454546 209.454545 209.454545 0 0 0-209.454546-209.454546z m0 349.090909a139.636364 139.636364 0 1 1 139.636364-139.636363 139.636364 139.636364 0 0 1-139.636364 139.636363z" fill="#767479" p-id="19278"></path><path d="M799.663568 15.44371m28.571369 20.057953l0 0q28.571369 20.057953 8.513416 48.629323l-425.763492 606.474928q-20.057953 28.571369-48.629322 8.513415l0 0q-28.571369-20.057953-8.513416-48.629322l425.763492-606.474928q20.057953-28.571369 48.629322-8.513416Z" fill="#767479" p-id="19279"></path><path d="M679.323383 679.206118m-28.571369 20.057953l0 0q-28.571369 20.057953-48.629323-8.513416l-425.763491-606.474928q-20.057953-28.571369 8.513415-48.629322l0 0q28.571369-20.057953 48.629323 8.513415l425.763491 606.474928q20.057953 28.571369-8.513415 48.629323Z" fill="#767479" p-id="19280"></path></svg>