<svg t="1734236272605" class="icon" viewBox="0 0 1024 1024" version="1.1" xmlns="http://www.w3.org/2000/svg" p-id="13428" width="200" height="200"><path d="M519.416 881.305c-200.226 0-363.373-163.147-363.373-363.372S319.19 154.56 519.416 154.56s363.373 163.147 363.373 363.373-163.147 363.372-363.373 363.372z m0-682.25c-176.496 0-318.878 143.865-318.878 318.878 0 176.495 142.382 318.878 318.878 318.878s318.878-142.383 318.878-318.878c0-175.013-142.383-318.879-318.878-318.879z" fill="#767479" p-id="13429"></path><path d="M336.988 409.662a57.843 57.843 0 1 0 115.686 0 57.843 57.843 0 1 0-115.686 0z m250.653 0a57.843 57.843 0 1 0 115.686 0 57.843 57.843 0 1 0-115.686 0z m-68.225 357.44c-129.035 0-234.339-100.854-234.339-225.439v-22.247h467.194v22.247c1.483 124.585-103.82 225.44-232.855 225.44z m-188.36-201.708c11.864 88.989 91.955 158.697 188.36 158.697s176.495-69.708 188.36-158.697h-376.72z" fill="#767479" p-id="13430"></path></svg>