<!-- <?xml version="1.0" standalone="no"?><!DOCTYPE svg PUBLIC "-//W3C//DTD SVG 1.1//EN" "http://www.w3.org/Graphics/SVG/1.1/DTD/svg11.dtd"><svg t="1734198515499" class="icon" viewBox="0 0 1024 1024" version="1.1" xmlns="http://www.w3.org/2000/svg" p-id="4886" xmlns:xlink="http://www.w3.org/1999/xlink" width="200" height="200"><path d="M175.616 833.024l18.944-48.64c13.824-35.328 25.088-74.24 26.112-89.088-71.68-58.88-110.592-135.68-110.592-217.6 0-173.568 178.688-314.368 398.848-314.368s398.848 141.312 398.848 314.368-178.688 314.368-398.848 314.368c-50.688 0-99.84-7.168-145.92-21.504-16.384 2.048-82.944 24.064-137.728 44.544l-49.664 17.92zM508.416 209.92c-194.048 0-351.744 119.808-351.744 267.776 0 69.632 34.816 135.168 98.816 185.344 8.192 6.656 22.528 17.92-0.512 90.624 99.84-34.816 111.616-31.232 118.272-29.184 43.008 13.824 88.064 20.48 135.168 20.48 194.048 0 351.744-119.808 351.744-267.776S702.464 209.92 508.416 209.92z" p-id="4887" fill="#55bf67"></path></svg> -->

<svg t="1734201348082" class="icon" viewBox="0 0 1024 1024" version="1.1" xmlns="http://www.w3.org/2000/svg" p-id="8009" width="200" height="200"><path d="M944.12 345.193333c-23.773333-50.853333-57.76-96.486667-101.026667-135.626666-43.093333-39-93.266667-69.606667-149.093333-90.973334C636.333333 96.526667 575.093333 85.333333 512 85.333333s-124.333333 11.193333-182 33.26c-55.82 21.366667-106 52-149.093333 90.973334-43.26 39.14-77.246667 84.773333-101.02 135.626666A391.093333 391.093333 0 0 0 42.666667 512c0 119.68 54.806667 232.9 151.1 313.64-30.666667 40.166667-74.926667 76.58-140.74 116.066667A21.333333 21.333333 0 0 0 64 981.333333c64.953333 0 124.666667-6.46 177.486667-19.206666 45.026667-10.86 85.226667-26.313333 119.68-46A511.086667 511.086667 0 0 0 512 938.666667c63.093333 0 124.333333-11.193333 182-33.26 55.82-21.333333 106-52 149.086667-90.973334 43.266667-39.14 77.253333-84.773333 101.026666-135.626666a392.46 392.46 0 0 0 0-333.613334z" fill="#55bf67" p-id="8010"></path></svg>


