<?xml version="1.0" standalone="no"?><!DOCTYPE svg PUBLIC "-//W3C//DTD SVG 1.1//EN" "http://www.w3.org/Graphics/SVG/1.1/DTD/svg11.dtd"><svg t="1734202448134" class="icon" viewBox="0 0 1024 1024" version="1.1" xmlns="http://www.w3.org/2000/svg" p-id="12013" xmlns:xlink="http://www.w3.org/1999/xlink" width="200" height="200"><path d="M512 917.333333h-4.266667c-2.133333 0-2.133333 0-4.266666-2.133333l-384-170.666667c-8.533333-2.133333-12.8-10.666667-12.8-19.2V298.666667v-4.266667c0-2.133333 2.133333-4.266667 2.133333-6.4 0-2.133333 2.133333-2.133333 2.133333-4.266667l4.266667-4.266666 2.133333-2.133334 384-170.666666c6.4-2.133333 12.8-2.133333 17.066667 0l384 170.666666c2.133333 0 2.133333 0 2.133333 2.133334 2.133333 0 2.133333 2.133333 4.266667 2.133333 2.133333 2.133333 2.133333 2.133333 2.133333 4.266667 2.133333 2.133333 2.133333 4.266667 2.133334 6.4v430.933333c0 8.533333-4.266667 17.066667-12.8 19.2l-384 170.666667c-2.133333 0-2.133333 2.133333-4.266667 2.133333 2.133333 2.133333 2.133333 2.133333 0 2.133333z m21.333333-435.2v379.733334l341.333334-151.466667V330.666667l-341.333334 151.466666zM149.333333 712.533333l341.333334 151.466667V482.133333L149.333333 330.666667v381.866666zM181.333333 298.666667L512 445.866667 842.666667 298.666667 512 151.466667 181.333333 298.666667z" fill="#767479" p-id="12014"></path></svg>