<?xml version="1.0" standalone="no"?><!DOCTYPE svg PUBLIC "-//W3C//DTD SVG 1.1//EN" "http://www.w3.org/Graphics/SVG/1.1/DTD/svg11.dtd"><svg t="1734207808900" class="icon" viewBox="0 0 1024 1024" version="1.1" xmlns="http://www.w3.org/2000/svg" p-id="22435" xmlns:xlink="http://www.w3.org/1999/xlink" width="200" height="200"><path d="M538.441143 121.014857l124.233143 129.938286 174.701714 42.678857a36.571429 36.571429 0 0 1 27.392 41.764571l-0.950857 4.022858-50.395429 172.544 50.395429 172.617142a36.571429 36.571429 0 0 1-22.491429 44.617143l-3.949714 1.170286-174.701714 42.642286-124.233143 129.974857a36.571429 36.571429 0 0 1-49.371429 3.218286l-3.510857-3.218286-124.342857-129.974857-174.592-42.642286a36.571429 36.571429 0 0 1-27.392-41.764571l0.950857-4.022858L210.578286 512 160.182857 339.382857a36.571429 36.571429 0 0 1 22.491429-44.580571l3.949714-1.170286 174.628571-42.678857 124.342858-129.938286a36.571429 36.571429 0 0 1 52.845714 0zM512 708.717714l-74.532571 38.144L512 824.795429l74.459429-77.933715L512 708.717714z m-240.713143-143.835428l-30.208 103.497143 104.740572 25.563428-4.205715-83.602286-70.326857-45.458285z m481.353143 0l-70.290286 45.458285-4.242285 83.602286 104.777142-25.563428-30.244571-103.497143z m-146.724571-215.515429l-77.238858 39.497143a36.571429 36.571429 0 0 1-33.353142 0l-77.238858-39.497143-4.388571 86.674286a36.571429 36.571429 0 0 1-13.129143 26.258286l-3.510857 2.56L324.169143 512l72.886857 47.177143a36.571429 36.571429 0 0 1 16.201143 24.502857l0.475428 4.352 4.352 86.637714 77.238858-39.533714a36.571429 36.571429 0 0 1 28.745142-1.974857l4.608 1.974857 77.238858 39.497143 4.388571-86.601143a36.571429 36.571429 0 0 1 13.092571-26.294857l3.547429-2.56 72.850286-47.177143-72.850286-47.067429a36.571429 36.571429 0 0 1-16.201143-24.502857l-0.475428-4.388571-4.388572-86.674286z m-260.096-19.346286l-104.740572 25.563429 30.208 103.460571 70.326857-45.421714 4.205715-83.602286z m332.288 0l4.242285 83.602286 70.290286 45.421714 30.244571-103.460571-104.777142-25.563429zM512 199.168L437.394286 277.101714 512 315.245714l74.496-38.144L512 199.168z" fill="#767479" fill-opacity=".65" p-id="22436"></path></svg>